<?xml version="1.0" encoding="UTF-8"?>
<svg width="800" height="600" viewBox="0 0 800 600" xmlns="http://www.w3.org/2000/svg">
  <defs>
    <linearGradient id="grad1" x1="0%" y1="0%" x2="100%" y2="100%">
      <stop offset="0%" style="stop-color:#6366f1;stop-opacity:0.8" />
      <stop offset="100%" style="stop-color:#a855f7;stop-opacity:0.8" />
    </linearGradient>
  </defs>
  <rect width="800" height="600" fill="#1e293b" />
  
  <!-- Abstract blockchain network -->
  <g opacity="0.2">
    <circle cx="200" cy="200" r="20" fill="#fff" />
    <circle cx="400" cy="150" r="25" fill="#fff" />
    <circle cx="600" cy="250" r="15" fill="#fff" />
    <circle cx="350" cy="400" r="20" fill="#fff" />
    <circle cx="500" cy="350" r="15" fill="#fff" />
    <circle cx="180" cy="470" r="18" fill="#fff" />
    <circle cx="700" cy="400" r="22" fill="#fff" />
    
    <line x1="200" y1="200" x2="400" y2="150" stroke="#8b5cf6" stroke-width="2" />
    <line x1="400" y1="150" x2="600" y2="250" stroke="#8b5cf6" stroke-width="2" />
    <line x1="400" y1="150" x2="350" y2="400" stroke="#8b5cf6" stroke-width="2" />
    <line x1="350" y1="400" x2="500" y2="350" stroke="#8b5cf6" stroke-width="2" />
    <line x1="600" y1="250" x2="500" y2="350" stroke="#8b5cf6" stroke-width="2" />
    <line x1="350" y1="400" x2="180" y2="470" stroke="#8b5cf6" stroke-width="2" />
    <line x1="500" y1="350" x2="700" y2="400" stroke="#8b5cf6" stroke-width="2" />
  </g>
  
  <!-- Central hexagons -->
  <g transform="translate(400, 300)">
    <polygon points="0,-80 70,-40 70,40 0,80 -70,40 -70,-40" fill="url(#grad1)" opacity="0.9" />
    <polygon points="0,-60 52,-30 52,30 0,60 -52,30 -52,-30" fill="#1e293b" opacity="0.9" />
    <polygon points="0,-40 35,-20 35,20 0,40 -35,20 -35,-20" fill="url(#grad1)" opacity="0.9" />
  </g>
  
  <!-- Floating particles -->
  <g>
    <circle cx="120" cy="120" r="3" fill="#6366f1" />
    <circle cx="650" cy="180" r="2" fill="#6366f1" />
    <circle cx="720" cy="300" r="4" fill="#8b5cf6" />
    <circle cx="200" cy="450" r="3" fill="#6366f1" />
    <circle cx="400" cy="500" r="2" fill="#8b5cf6" />
    <circle cx="300" cy="80" r="3" fill="#8b5cf6" />
    <circle cx="500" cy="100" r="2" fill="#6366f1" />
    <circle cx="600" cy="450" r="3" fill="#8b5cf6" />
  </g>
</svg>