<?xml version="1.0" encoding="UTF-8"?>
<svg width="800" height="500" viewBox="0 0 800 500" xmlns="http://www.w3.org/2000/svg">
  <defs>
    <linearGradient id="goldGrad" x1="0%" y1="0%" x2="100%" y2="100%">
      <stop offset="0%" style="stop-color:#fbbf24;stop-opacity:0.9" />
      <stop offset="100%" style="stop-color:#d97706;stop-opacity:0.9" />
    </linearGradient>
    <filter id="glow" height="300%" width="300%" x="-100%" y="-100%">
      <feGaussianBlur stdDeviation="5" result="blur" />
      <feColorMatrix in="blur" mode="matrix" values="1 0 0 0 0  0 1 0 0 0  0 0 1 0 0  0 0 0 20 -5" result="glow" />
      <feBlend in="SourceGraphic" in2="glow" mode="normal" />
    </filter>
  </defs>
  <rect width="800" height="500" fill="#0f172a" />
  
  <!-- Background pattern -->
  <g opacity="0.1">
    <rect x="0" y="0" width="800" height="500" fill="none" stroke="#fbbf24" stroke-width="1" />
    <line x1="0" y1="0" x2="800" y2="500" stroke="#fbbf24" stroke-width="1" />
    <line x1="800" y1="0" x2="0" y2="500" stroke="#fbbf24" stroke-width="1" />
    
    <circle cx="400" cy="250" r="200" fill="none" stroke="#fbbf24" stroke-width="1" />
    <circle cx="400" cy="250" r="150" fill="none" stroke="#fbbf24" stroke-width="1" />
    <circle cx="400" cy="250" r="100" fill="none" stroke="#fbbf24" stroke-width="1" />
    <circle cx="400" cy="250" r="50" fill="none" stroke="#fbbf24" stroke-width="1" />
  </g>
  
  <!-- Main gold token -->
  <g transform="translate(400, 250)">
    <!-- Gold coin -->
    <circle cx="0" cy="0" r="120" fill="url(#goldGrad)" filter="url(#glow)" />
    <circle cx="0" cy="0" r="110" fill="#0f172a" />
    <circle cx="0" cy="0" r="100" fill="url(#goldGrad)" />
    
    <!-- Token logo design -->
    <path d="M-30,-30 L30,-30 L30,30 L-30,30 Z" fill="none" stroke="#fff" stroke-width="8" />
    <text x="0" y="10" font-family="Arial" font-size="24" font-weight="bold" text-anchor="middle" fill="#fff">Au</text>
    
    <!-- Outer ring segments to show blockchain structure -->
    <g opacity="0.8">
      <path d="M0 -120 A 120 120 0 0 1 60 -104" fill="none" stroke="#fff" stroke-width="4" />
      <path d="M104 -60 A 120 120 0 0 1 120 0" fill="none" stroke="#fff" stroke-width="4" />
      <path d="M120 0 A 120 120 0 0 1 104 60" fill="none" stroke="#fff" stroke-width="4" />
      <path d="M104 60 A 120 120 0 0 1 60 104" fill="none" stroke="#fff" stroke-width="4" />
      <path d="M60 104 A 120 120 0 0 1 0 120" fill="none" stroke="#fff" stroke-width="4" />
      <path d="M0 120 A 120 120 0 0 1 -60 104" fill="none" stroke="#fff" stroke-width="4" />
      <path d="M-104 60 A 120 120 0 0 1 -120 0" fill="none" stroke="#fff" stroke-width="4" />
      <path d="M-120 0 A 120 120 0 0 1 -104 -60" fill="none" stroke="#fff" stroke-width="4" />
      <path d="M-104 -60 A 120 120 0 0 1 -60 -104" fill="none" stroke="#fff" stroke-width="4" />
      <path d="M-60 -104 A 120 120 0 0 1 0 -120" fill="none" stroke="#fff" stroke-width="4" />
    </g>
  </g>
  
  <!-- Floating smaller coins -->
  <g>
    <circle cx="150" cy="150" r="40" fill="url(#goldGrad)" opacity="0.5" />
    <circle cx="650" cy="180" r="30" fill="url(#goldGrad)" opacity="0.5" />
    <circle cx="200" cy="400" r="35" fill="url(#goldGrad)" opacity="0.5" />
    <circle cx="600" cy="350" r="25" fill="url(#goldGrad)" opacity="0.5" />
  </g>
  
  <!-- Dollar symbols representing stablecoin aspect -->
  <g fill="#fff" opacity="0.7">
    <text x="150" y="155" font-family="Arial" font-size="24" font-weight="bold" text-anchor="middle">$</text>
    <text x="650" y="185" font-family="Arial" font-size="18" font-weight="bold" text-anchor="middle">$</text>
    <text x="200" y="405" font-family="Arial" font-size="20" font-weight="bold" text-anchor="middle">$</text>
    <text x="600" y="355" font-family="Arial" font-size="16" font-weight="bold" text-anchor="middle">$</text>
  </g>
</svg>