<?xml version="1.0" encoding="UTF-8"?>
<svg width="800" height="500" viewBox="0 0 800 500" xmlns="http://www.w3.org/2000/svg">
  <defs>
    <linearGradient id="ethereumGrad" x1="0%" y1="0%" x2="100%" y2="100%">
      <stop offset="0%" style="stop-color:#627eea;stop-opacity:0.9" />
      <stop offset="100%" style="stop-color:#8a92b2;stop-opacity:0.9" />
    </linearGradient>
    <linearGradient id="yieldGrad" x1="0%" y1="0%" x2="100%" y2="100%">
      <stop offset="0%" style="stop-color:#10b981;stop-opacity:0.9" />
      <stop offset="100%" style="stop-color:#6ee7b7;stop-opacity:0.9" />
    </linearGradient>
    <filter id="glow" height="300%" width="300%" x="-100%" y="-100%">
      <feGaussianBlur stdDeviation="3" result="blur" />
      <feColorMatrix in="blur" mode="matrix" values="1 0 0 0 0  0 1 0 0 0  0 0 1 0 0  0 0 0 10 -3" result="glow" />
      <feBlend in="SourceGraphic" in2="glow" mode="normal" />
    </filter>
  </defs>
  <rect width="800" height="500" fill="#0f172a" />
  
  <!-- Background grid structure -->
  <g stroke="#1e293b" stroke-width="1" opacity="0.3">
    <line x1="0" y1="100" x2="800" y2="100" />
    <line x1="0" y1="200" x2="800" y2="200" />
    <line x1="0" y1="300" x2="800" y2="300" />
    <line x1="0" y1="400" x2="800" y2="400" />
    
    <line x1="200" y1="0" x2="200" y2="500" />
    <line x1="400" y1="0" x2="400" y2="500" />
    <line x1="600" y1="0" x2="600" y2="500" />
  </g>
  
  <!-- Stacking coins symbolizing stake -->
  <g transform="translate(400, 250)">
    <!-- Bottom coins layer -->
    <ellipse cx="-60" cy="80" rx="50" ry="20" fill="url(#ethereumGrad)" opacity="0.6" />
    <ellipse cx="0" cy="80" rx="50" ry="20" fill="url(#ethereumGrad)" opacity="0.7" />
    <ellipse cx="60" cy="80" rx="50" ry="20" fill="url(#ethereumGrad)" opacity="0.6" />
    
    <!-- Middle coins layer -->
    <ellipse cx="-30" cy="50" rx="50" ry="20" fill="url(#ethereumGrad)" opacity="0.8" />
    <ellipse cx="30" cy="50" rx="50" ry="20" fill="url(#ethereumGrad)" opacity="0.8" />
    
    <!-- Top coin layer with yield indicators -->
    <ellipse cx="0" cy="20" rx="50" ry="20" fill="url(#ethereumGrad)" filter="url(#glow)" />
    
    <!-- Yield output -->
    <g>
      <path d="M0,0 L0,-80" stroke="url(#yieldGrad)" stroke-width="5" stroke-dasharray="5,5" />
      <circle cx="0" cy="-80" r="20" fill="url(#yieldGrad)" filter="url(#glow)" />
      <text x="0" y="-75" font-family="Arial" font-size="16" font-weight="bold" text-anchor="middle" fill="#fff">%</text>
    </g>
  </g>
  
  <!-- Flow indicators -->
  <g stroke-width="2" opacity="0.8">
    <path d="M200,150 C300,100 350,150 400,150" stroke="#627eea" fill="none" />
    <polygon points="400,150 390,145 390,155" fill="#627eea" />
    
    <path d="M600,150 C500,100 450,150 400,150" stroke="#627eea" fill="none" />
    <polygon points="600,150 590,145 590,155" fill="#627eea" />
    
    <path d="M200,350 C300,400 350,350 400,350" stroke="#627eea" fill="none" />
    <polygon points="400,350 390,345 390,355" fill="#627eea" />
    
    <path d="M600,350 C500,400 450,350 400,350" stroke="#627eea" fill="none" />
    <polygon points="600,350 590,345 590,355" fill="#627eea" />
  </g>
  
  <!-- Ethereum logos on the sides -->
  <g>
    <path d="M200,150 l-20,30 l20,12 l20,-12 l-20,-30 M180,180 l20,32 l20,-32 l-20,12 z" fill="#627eea" />
    <path d="M600,150 l-20,30 l20,12 l20,-12 l-20,-30 M580,180 l20,32 l20,-32 l-20,12 z" fill="#627eea" />
    <path d="M200,350 l-20,30 l20,12 l20,-12 l-20,-30 M180,380 l20,32 l20,-32 l-20,12 z" fill="#627eea" />
    <path d="M600,350 l-20,30 l20,12 l20,-12 l-20,-30 M580,380 l20,32 l20,-32 l-20,12 z" fill="#627eea" />
  </g>
  
  <!-- Network node indicators -->
  <g>
    <circle cx="100" cy="100" r="8" fill="#10b981" />
    <circle cx="700" cy="100" r="8" fill="#10b981" />
    <circle cx="100" cy="400" r="8" fill="#10b981" />
    <circle cx="700" cy="400" r="8" fill="#10b981" />
    
    <line x1="100" y1="100" x2="200" y2="150" stroke="#10b981" stroke-width="1" stroke-dasharray="5,3" />
    <line x1="700" y1="100" x2="600" y2="150" stroke="#10b981" stroke-width="1" stroke-dasharray="5,3" />
    <line x1="100" y1="400" x2="200" y2="350" stroke="#10b981" stroke-width="1" stroke-dasharray="5,3" />
    <line x1="700" y1="400" x2="600" y2="350" stroke="#10b981" stroke-width="1" stroke-dasharray="5,3" />
  </g>
</svg>